<svg id="Ebene_1" xmlns="http://www.w3.org/2000/svg" viewBox="0 0 303 138.4"><style>.st0{fill:none;stroke:#fff;stroke-width:2;stroke-miterlimit:10}.st1{fill:#fff}</style><path class="st0" d="M1 135.8l44.8-44.7V1.6L1 46.3v89.5z"/><path class="st0" d="M90.5 135.8L135.3 91V1.5L1.6 46.1c-.3.1-.4.4-.2.7l89.1 89zM45.8 91.1h89.5"/><path class="st1" d="M153.6 33.1h3.5V41h7.9v-7.9h3.5v19.6H165V44h-7.9v8.7h-3.5V33.1zM181.1 43.3c0-1.6-.7-2.9-2.7-2.9-1.5 0-2.8.7-4.1 1.4l-1.3-2.3c1.6-1 3.7-1.9 6-1.9 3.7 0 5.5 2.2 5.5 6.4v8.7h-2.8l-.3-1.6h-.1c-1.3 1.1-2.8 2-4.6 2-2.6 0-4.4-1.7-4.4-4.3.2-3.2 2.8-4.9 8.8-5.5zm-3.2 7.1c1.2 0 2.1-.6 3.2-1.6v-3.3c-4 .5-5.3 1.6-5.3 3 0 1.3.9 1.9 2.1 1.9zM195.2 37.6c1.9 0 3.3.8 4.3 1.7l-1.7 2.2c-.8-.7-1.6-1.1-2.5-1.1-2.4 0-4 2-4 4.9s1.6 4.9 3.9 4.9c1.2 0 2.2-.6 3-1.3l1.4 2.2c-1.4 1.2-3.1 1.9-4.8 1.9-4 0-7.1-2.8-7.1-7.7.1-4.9 3.6-7.7 7.5-7.7zM202.6 31.5h3.4v13.2h.1l5.5-6.8h3.8l-5 6 5.5 8.7h-3.8l-3.8-6.4-2.3 2.6v3.8h-3.4V31.5zM223.5 37.6c4 0 6.1 2.9 6.1 7 0 .7-.1 1.3-.2 1.6H220c.3 2.7 2 4.2 4.3 4.2 1.3 0 2.3-.4 3.4-1.1l1.2 2.2c-1.4.9-3.2 1.6-5 1.6-4.1 0-7.3-2.9-7.3-7.7.1-4.8 3.4-7.8 6.9-7.8zm3 6.4c0-2.3-1-3.8-3-3.8-1.7 0-3.2 1.3-3.5 3.8h6.5zM232.8 38h2.9l.2 2.6h.1c1-1.9 2.6-3 4.2-3 .7 0 1.2.1 1.7.3l-.6 3c-.5-.2-.9-.2-1.5-.2-1.2 0-2.6.8-3.5 3v9h-3.5V38zM244 31.5h3.4v13.2h.1l5.5-6.8h3.8l-5 6 5.6 8.7h-3.8l-3.8-6.4-2.3 2.6v3.8h-3.4l-.1-21.1zM259.3 33.4c0-1.2.9-2 2.1-2s2.1.8 2.1 2c0 1.1-.9 1.9-2.1 1.9-1.2.1-2.1-.7-2.1-1.9zm.4 4.6h3.4v14.7h-3.4V38zM267.7 48.8c1.3 1 2.6 1.6 4.1 1.6 1.6 0 2.3-.8 2.3-1.8 0-1.2-1.6-1.8-3.2-2.4-1.9-.7-4.1-1.8-4.1-4.3 0-2.6 2.1-4.4 5.4-4.4 2 0 3.7.8 4.9 1.8l-1.6 2.1c-1-.8-2.1-1.3-3.2-1.3-1.5 0-2.2.7-2.2 1.6 0 1.1 1.5 1.6 3.1 2.2 2 .8 4.2 1.7 4.2 4.5 0 2.5-2 4.6-5.7 4.6-2 0-4.1-.9-5.6-2l1.6-2.2zM281 40.7h-2.1v-2.6l2.3-.2.4-4h2.9v4h3.8v2.7h-3.8v7c0 1.7.7 2.6 2.1 2.6.5 0 1.1-.2 1.5-.3l.6 2.5c-.8.3-1.8.5-3 .5-3.4 0-4.7-2.2-4.7-5.3v-6.9zM296.8 37.6c4 0 6.1 2.9 6.1 7 0 .7-.1 1.3-.2 1.6h-9.4c.3 2.7 2 4.2 4.3 4.2 1.3 0 2.3-.4 3.4-1.1l1.2 2.2c-1.4.9-3.2 1.6-5 1.6-4.1 0-7.3-2.9-7.3-7.7.2-4.8 3.5-7.8 6.9-7.8zm3.1 6.4c0-2.3-1-3.8-3-3.8-1.7 0-3.2 1.3-3.5 3.8h6.5zM162.8 77.9H155l-2.3 6.8h-1.4l7-19.8h1.4l7 19.8h-1.6l-2.3-6.8zm-.4-1.1l-1.3-3.7c-.8-2.3-1.5-4.4-2.2-6.8h-.1c-.7 2.4-1.4 4.5-2.2 6.8l-1.3 3.7h7.1zM168.9 70.3h1.3v9.1c0 3.1 1 4.5 3.3 4.5 1.7 0 3-.9 4.7-2.9V70.4h1.3v14.4h-1.1l-.1-2.4h-.1c-1.4 1.7-2.9 2.8-4.9 2.8-3 0-4.3-1.8-4.3-5.5l-.1-9.4zM186 84.2c-.7-.5-1.3-1.3-1.3-2.4 0-1.3.9-2.2 1.6-2.6v-.1c-.9-.8-1.8-2.2-1.8-4 0-3 2.2-5.1 5.1-5.1.8 0 1.4.2 1.9.4h4.9v1.1H193c.9.8 1.6 2.1 1.6 3.6 0 2.9-2.2 5.1-5 5.1-.8 0-1.7-.2-2.4-.6-.6.5-1.2 1.1-1.2 2.1s.6 1.9 2.8 1.9h3.1c3.2 0 4.7 1 4.7 3.3 0 2.5-2.7 4.9-6.8 4.9-3.6 0-5.9-1.6-5.9-4-.1-1.4.7-2.7 2.1-3.6zm3.9 6.4c3.2 0 5.3-1.8 5.3-3.6 0-1.6-1.2-2.2-3.3-2.2h-3.1c-.3 0-1.1-.1-1.8-.2-1.3.9-1.9 2-1.9 3 0 1.7 1.7 3 4.8 3zm3.3-15.6c0-2.4-1.7-4-3.7-4s-3.8 1.5-3.8 4c0 2.4 1.7 4 3.8 4 2 .1 3.7-1.5 3.7-4zM198.6 82.1c1.2 1 2.5 1.8 4.6 1.8 2.2 0 3.4-1.3 3.4-2.8 0-1.8-1.9-2.6-3.5-3.2-2.2-.8-4.6-1.7-4.6-4.1 0-2.1 1.7-3.8 4.7-3.8 1.5 0 3.1.6 4.1 1.5l-.7.9c-1-.7-2-1.3-3.4-1.3-2.2 0-3.2 1.3-3.2 2.6 0 1.6 1.7 2.3 3.4 2.9 2.2.8 4.7 1.6 4.7 4.4 0 2.2-1.7 4-4.9 4-2.1 0-4-.9-5.3-2l.7-.9zM211.8 63.1h1.3v6.2l-.1 2.8c1.5-1.2 3.2-2.2 5-2.2 3.8 0 5.8 2.9 5.8 7.3 0 4.9-3 7.8-6.4 7.8-1.4 0-3-.7-4.3-1.7h-.1l-.2 1.3h-1.1V63.1h.1zm5.6 20.8c2.9 0 5-2.7 5-6.6 0-3.5-1.3-6.2-4.6-6.2-1.4 0-3 .8-4.7 2.4V82c1.6 1.4 3.2 1.9 4.3 1.9zM227.9 70.3h1.3v9.1c0 3.1 1 4.5 3.3 4.5 1.7 0 3-.9 4.7-2.9V70.4h1.3v14.4h-1.1l-.1-2.4h-.2c-1.4 1.7-2.9 2.8-4.9 2.8-3 0-4.4-1.8-4.4-5.5l.1-9.4zM244 70.3h1.1l.1 2.7h.1c1-1.8 2.4-3 4.1-3 .5 0 1 .1 1.4.3l-.3 1.2c-.5-.2-.8-.2-1.3-.2-1.3 0-2.8 1-3.9 3.7v9.8H244V70.3zM254.1 84.2c-.7-.5-1.3-1.3-1.3-2.4 0-1.3.9-2.2 1.6-2.6v-.1c-.9-.8-1.8-2.2-1.8-4 0-3 2.2-5.1 5.1-5.1.8 0 1.4.2 1.9.4h4.9v1.1h-3.4c.9.8 1.6 2.1 1.6 3.6 0 2.9-2.2 5.1-5 5.1-.8 0-1.7-.2-2.4-.6-.6.5-1.2 1.1-1.2 2.1s.6 1.9 2.8 1.9h3.1c3.2 0 4.7 1 4.7 3.3 0 2.5-2.7 4.9-6.8 4.9-3.6 0-5.9-1.6-5.9-4 0-1.4.8-2.7 2.1-3.6zm4 6.4c3.2 0 5.3-1.8 5.3-3.6 0-1.6-1.2-2.2-3.3-2.2H257c-.3 0-1.1-.1-1.8-.2-1.3.9-1.9 2-1.9 3 0 1.7 1.7 3 4.8 3zm3.3-15.6c0-2.4-1.7-4-3.7-4s-3.8 1.5-3.8 4c0 2.4 1.7 4 3.8 4 2 .1 3.7-1.5 3.7-4z"/></svg>