<?xml version="1.0" encoding="utf-8"?>
<!-- Generator: Adobe Illustrator 22.1.0, SVG Export Plug-In . SVG Version: 6.00 Build 0)  -->
<svg version="1.1" id="Ebene_1" xmlns="http://www.w3.org/2000/svg" xmlns:xlink="http://www.w3.org/1999/xlink" x="0px" y="0px"
	 viewBox="0 0 303 138.4" style="enable-background:new 0 0 303 138.4;" xml:space="preserve">
<style type="text/css">
	.st0{fill:none;stroke:#FFFFFF;stroke-width:2;stroke-miterlimit:10;}
	.st1{fill:#FFFFFF;}
</style>
<g>
	<path class="st0" d="M1,135.8l44.8-44.7V1.6L1,46.3V135.8z"/>
	<path class="st0" d="M90.5,135.8L135.3,91V1.5L1.6,46.1c-0.3,0.1-0.4,0.4-0.2,0.7L90.5,135.8z"/>
	<path class="st0" d="M45.8,91.1h89.5"/>
</g>
<path class="st1" d="M153.6,33.1h3.5V41h7.9v-7.9h3.5v19.6H165V44h-7.9v8.7h-3.5V33.1z"/>
<path class="st1" d="M181.1,43.3c0-1.6-0.7-2.9-2.7-2.9c-1.5,0-2.8,0.7-4.1,1.4l-1.3-2.3c1.6-1,3.7-1.9,6-1.9c3.7,0,5.5,2.2,5.5,6.4
	v8.7h-2.8l-0.3-1.6h-0.1c-1.3,1.1-2.8,2-4.6,2c-2.6,0-4.4-1.7-4.4-4.3C172.5,45.6,175.1,43.9,181.1,43.3L181.1,43.3z M177.9,50.4
	c1.2,0,2.1-0.6,3.2-1.6v-3.3c-4,0.5-5.3,1.6-5.3,3C175.8,49.8,176.7,50.4,177.9,50.4z"/>
<path class="st1" d="M195.2,37.6c1.9,0,3.3,0.8,4.3,1.7l-1.7,2.2c-0.8-0.7-1.6-1.1-2.5-1.1c-2.4,0-4,2-4,4.9s1.6,4.9,3.9,4.9
	c1.2,0,2.2-0.6,3-1.3l1.4,2.2c-1.4,1.2-3.1,1.9-4.8,1.9c-4,0-7.1-2.8-7.1-7.7C187.8,40.4,191.3,37.6,195.2,37.6L195.2,37.6z"/>
<path class="st1" d="M202.6,31.5h3.4v13.2h0.1l5.5-6.8h3.8l-5,6l5.5,8.7h-3.8l-3.8-6.4l-2.3,2.6v3.8h-3.4V31.5z"/>
<path class="st1" d="M223.5,37.6c4,0,6.1,2.9,6.1,7c0,0.7-0.1,1.3-0.2,1.6H220c0.3,2.7,2,4.2,4.3,4.2c1.3,0,2.3-0.4,3.4-1.1l1.2,2.2
	c-1.4,0.9-3.2,1.6-5,1.6c-4.1,0-7.3-2.9-7.3-7.7C216.7,40.6,220,37.6,223.5,37.6z M226.5,44c0-2.3-1-3.8-3-3.8
	c-1.7,0-3.2,1.3-3.5,3.8H226.5z"/>
<path class="st1" d="M232.8,38h2.9l0.2,2.6h0.1c1-1.9,2.6-3,4.2-3c0.7,0,1.2,0.1,1.7,0.3l-0.6,3c-0.5-0.2-0.9-0.2-1.5-0.2
	c-1.2,0-2.6,0.8-3.5,3v9h-3.5L232.8,38z"/>
<path class="st1" d="M244,31.5h3.4v13.2h0.1l5.5-6.8h3.8l-5,6l5.6,8.7h-3.8l-3.8-6.4l-2.3,2.6v3.8h-3.4L244,31.5L244,31.5z"/>
<path class="st1" d="M259.3,33.4c0-1.2,0.9-2,2.1-2s2.1,0.8,2.1,2c0,1.1-0.9,1.9-2.1,1.9C260.2,35.4,259.3,34.6,259.3,33.4z
	 M259.7,38h3.4v14.7h-3.4V38z"/>
<path class="st1" d="M267.7,48.8c1.3,1,2.6,1.6,4.1,1.6c1.6,0,2.3-0.8,2.3-1.8c0-1.2-1.6-1.8-3.2-2.4c-1.9-0.7-4.1-1.8-4.1-4.3
	c0-2.6,2.1-4.4,5.4-4.4c2,0,3.7,0.8,4.9,1.8l-1.6,2.1c-1-0.8-2.1-1.3-3.2-1.3c-1.5,0-2.2,0.7-2.2,1.6c0,1.1,1.5,1.6,3.1,2.2
	c2,0.8,4.2,1.7,4.2,4.5c0,2.5-2,4.6-5.7,4.6c-2,0-4.1-0.9-5.6-2L267.7,48.8z"/>
<path class="st1" d="M281,40.7h-2.1v-2.6l2.3-0.2l0.4-4h2.9v4h3.8v2.7h-3.8v7c0,1.7,0.7,2.6,2.1,2.6c0.5,0,1.1-0.2,1.5-0.3l0.6,2.5
	c-0.8,0.3-1.8,0.5-3,0.5c-3.4,0-4.7-2.2-4.7-5.3L281,40.7z"/>
<path class="st1" d="M296.8,37.6c4,0,6.1,2.9,6.1,7c0,0.7-0.1,1.3-0.2,1.6h-9.4c0.3,2.7,2,4.2,4.3,4.2c1.3,0,2.3-0.4,3.4-1.1
	l1.2,2.2c-1.4,0.9-3.2,1.6-5,1.6c-4.1,0-7.3-2.9-7.3-7.7C290.1,40.6,293.4,37.6,296.8,37.6z M299.9,44c0-2.3-1-3.8-3-3.8
	c-1.7,0-3.2,1.3-3.5,3.8H299.9z"/>
<path class="st1" d="M162.8,77.9H155l-2.3,6.8h-1.4l7-19.8h1.4l7,19.8h-1.6L162.8,77.9z M162.4,76.8l-1.3-3.7
	c-0.8-2.3-1.5-4.4-2.2-6.8h-0.1c-0.7,2.4-1.4,4.5-2.2,6.8l-1.3,3.7H162.4z"/>
<path class="st1" d="M168.9,70.3h1.3v9.1c0,3.1,1,4.5,3.3,4.5c1.7,0,3-0.9,4.7-2.9V70.4h1.3v14.4h-1.1l-0.1-2.4h-0.1
	c-1.4,1.7-2.9,2.8-4.9,2.8c-3,0-4.3-1.8-4.3-5.5L168.9,70.3z"/>
<path class="st1" d="M186,84.2L186,84.2c-0.7-0.5-1.3-1.3-1.3-2.4c0-1.3,0.9-2.2,1.6-2.6v-0.1c-0.9-0.8-1.8-2.2-1.8-4
	c0-3,2.2-5.1,5.1-5.1c0.8,0,1.4,0.2,1.9,0.4h4.9v1.1H193c0.9,0.8,1.6,2.1,1.6,3.6c0,2.9-2.2,5.1-5,5.1c-0.8,0-1.7-0.2-2.4-0.6
	c-0.6,0.5-1.2,1.1-1.2,2.1s0.6,1.9,2.8,1.9h3.1c3.2,0,4.7,1,4.7,3.3c0,2.5-2.7,4.9-6.8,4.9c-3.6,0-5.9-1.6-5.9-4
	C183.8,86.4,184.6,85.1,186,84.2L186,84.2z M189.9,90.6c3.2,0,5.3-1.8,5.3-3.6c0-1.6-1.2-2.2-3.3-2.2h-3.1c-0.3,0-1.1-0.1-1.8-0.2
	c-1.3,0.9-1.9,2-1.9,3C185.1,89.3,186.8,90.6,189.9,90.6z M193.2,75c0-2.4-1.7-4-3.7-4s-3.8,1.5-3.8,4c0,2.4,1.7,4,3.8,4
	C191.5,79.1,193.2,77.5,193.2,75z"/>
<path class="st1" d="M198.6,82.1c1.2,1,2.5,1.8,4.6,1.8c2.2,0,3.4-1.3,3.4-2.8c0-1.8-1.9-2.6-3.5-3.2c-2.2-0.8-4.6-1.7-4.6-4.1
	c0-2.1,1.7-3.8,4.7-3.8c1.5,0,3.1,0.6,4.1,1.5l-0.7,0.9c-1-0.7-2-1.3-3.4-1.3c-2.2,0-3.2,1.3-3.2,2.6c0,1.6,1.7,2.3,3.4,2.9
	c2.2,0.8,4.7,1.6,4.7,4.4c0,2.2-1.7,4-4.9,4c-2.1,0-4-0.9-5.3-2L198.6,82.1z"/>
<path class="st1" d="M211.8,63.1h1.3v6.2l-0.1,2.8c1.5-1.2,3.2-2.2,5-2.2c3.8,0,5.8,2.9,5.8,7.3c0,4.9-3,7.8-6.4,7.8
	c-1.4,0-3-0.7-4.3-1.7H213l-0.2,1.3h-1.1V63.1L211.8,63.1z M217.4,83.9c2.9,0,5-2.7,5-6.6c0-3.5-1.3-6.2-4.6-6.2
	c-1.4,0-3,0.8-4.7,2.4V82C214.7,83.4,216.3,83.9,217.4,83.9z"/>
<path class="st1" d="M227.9,70.3h1.3v9.1c0,3.1,1,4.5,3.3,4.5c1.7,0,3-0.9,4.7-2.9V70.4h1.3v14.4h-1.1l-0.1-2.4h-0.2
	c-1.4,1.7-2.9,2.8-4.9,2.8c-3,0-4.4-1.8-4.4-5.5L227.9,70.3z"/>
<path class="st1" d="M244,70.3h1.1l0.1,2.7h0.1c1-1.8,2.4-3,4.1-3c0.5,0,1,0.1,1.4,0.3l-0.3,1.2c-0.5-0.2-0.8-0.2-1.3-0.2
	c-1.3,0-2.8,1-3.9,3.7v9.8H244L244,70.3z"/>
<path class="st1" d="M254.1,84.2L254.1,84.2c-0.7-0.5-1.3-1.3-1.3-2.4c0-1.3,0.9-2.2,1.6-2.6v-0.1c-0.9-0.8-1.8-2.2-1.8-4
	c0-3,2.2-5.1,5.1-5.1c0.8,0,1.4,0.2,1.9,0.4h4.9v1.1h-3.4c0.9,0.8,1.6,2.1,1.6,3.6c0,2.9-2.2,5.1-5,5.1c-0.8,0-1.7-0.2-2.4-0.6
	c-0.6,0.5-1.2,1.1-1.2,2.1s0.6,1.9,2.8,1.9h3.1c3.2,0,4.7,1,4.7,3.3c0,2.5-2.7,4.9-6.8,4.9c-3.6,0-5.9-1.6-5.9-4
	C252,86.4,252.8,85.1,254.1,84.2L254.1,84.2z M258.1,90.6c3.2,0,5.3-1.8,5.3-3.6c0-1.6-1.2-2.2-3.3-2.2H257c-0.3,0-1.1-0.1-1.8-0.2
	c-1.3,0.9-1.9,2-1.9,3C253.3,89.3,255,90.6,258.1,90.6z M261.4,75c0-2.4-1.7-4-3.7-4s-3.8,1.5-3.8,4c0,2.4,1.7,4,3.8,4
	C259.7,79.1,261.4,77.5,261.4,75z"/>
</svg>
