<svg xmlns="http://www.w3.org/2000/svg" viewBox="0 0 483 720"><filter id="b"><feGaussianBlur stdDeviation="12" /></filter><path fill="#534833" d="M0 0h483v720H0z"/><g filter="url(#b)" transform="translate(1.4 1.4) scale(2.8125)" fill-opacity=".5"><ellipse fill="#a4b264" cx="105" cy="35" rx="171" ry="35"/><ellipse fill="#000013" rx="1" ry="1" transform="matrix(60.3296 64.49545 -54.16095 50.66262 157.2 208.1)"/><ellipse fill="#fff765" rx="1" ry="1" transform="matrix(-21.99407 13.47799 -9.81779 -16.02118 83.4 121.9)"/><ellipse fill="#00000e" rx="1" ry="1" transform="rotate(8.2 -1734.3 581.4) scale(171 31.47881)"/><ellipse fill="#010001" rx="1" ry="1" transform="rotate(70.2 8.6 110) scale(43.73452 13.17217)"/><path fill="#ea9834" d="M42 227l68-16-60-27z"/><ellipse fill="#fdaf3e" cx="79" cy="63" rx="17" ry="28"/><ellipse fill="#240c22" rx="1" ry="1" transform="matrix(46.66462 -50.94575 17.95608 16.44718 29.8 188.8)"/></g></svg>